<svg width="32" height="32" viewBox="0 0 32 32" fill="none" xmlns="http://www.w3.org/2000/svg">
<path d="M8.38392 0H5.34395C1.83998 0 0 1.83998 0 5.32795V8.36792C0 11.8559 1.83998 13.6959 5.32795 13.6959H8.36792C11.8559 13.6959 13.6959 11.8559 13.6959 8.36792V5.32795C13.7119 1.83998 11.8719 0 8.38392 0Z" fill="#F9881F"/>
<path opacity="0.4" d="M26.6709 0H23.631C20.143 0 18.303 1.83998 18.303 5.32795V8.36792C18.303 11.8559 20.143 13.6959 23.631 13.6959H26.6709C30.1589 13.6959 31.9989 11.8559 31.9989 8.36792V5.32795C31.9989 1.83998 30.1589 0 26.6709 0Z" fill="#FDD4AE"/>
<path d="M26.6709 18.2881H23.631C20.143 18.2881 18.303 20.1281 18.303 23.6161V26.656C18.303 30.144 20.143 31.984 23.631 31.984H26.6709C30.1589 31.984 31.9989 30.144 31.9989 26.656V23.6161C31.9989 20.1281 30.1589 18.2881 26.6709 18.2881Z" fill="#F9881F"/>
<path opacity="0.4" d="M8.38392 18.2881H5.34395C1.83998 18.2881 0 20.1281 0 23.6161V26.656C0 30.16 1.83998 32 5.32795 32H8.36792C11.8559 32 13.6959 30.16 13.6959 26.672V23.6321C13.7119 20.1281 11.8719 18.2881 8.38392 18.2881Z" fill="#FA9435"/>
</svg>
