<svg width="23" height="24" viewBox="0 0 23 24" fill="none" xmlns="http://www.w3.org/2000/svg">
<path d="M11.4758 2.61786C6.36786 2.61786 2.2121 6.77362 2.2121 11.8816C2.2121 16.9895 6.36786 21.1453 11.4758 21.1453C16.5838 21.1453 20.7395 16.9895 20.7395 11.8816C20.7395 6.77362 16.5838 2.61786 11.4758 2.61786ZM12.901 16.1571H10.0506C9.86164 16.1571 9.68039 16.0821 9.54675 15.9484C9.41312 15.8148 9.33804 15.6335 9.33804 15.4446C9.33804 15.2556 9.41312 15.0743 9.54675 14.9407C9.68039 14.807 9.86164 14.732 10.0506 14.732H12.901C13.09 14.732 13.2713 14.807 13.4049 14.9407C13.5385 15.0743 13.6136 15.2556 13.6136 15.4446C13.6136 15.6335 13.5385 15.8148 13.4049 15.9484C13.2713 16.0821 13.09 16.1571 12.901 16.1571ZM15.0388 13.3068H7.91285C7.72386 13.3068 7.54261 13.2317 7.40897 13.0981C7.27533 12.9644 7.20026 12.7832 7.20026 12.5942C7.20026 12.4052 7.27533 12.2239 7.40897 12.0903C7.54261 11.9567 7.72386 11.8816 7.91285 11.8816H15.0388C15.2278 11.8816 15.409 11.9567 15.5427 12.0903C15.6763 12.2239 15.7514 12.4052 15.7514 12.5942C15.7514 12.7832 15.6763 12.9644 15.5427 13.0981C15.409 13.2317 15.2278 13.3068 15.0388 13.3068ZM16.464 10.4564H6.48766C6.29867 10.4564 6.11742 10.3813 5.98378 10.2477C5.85014 10.114 5.77507 9.93279 5.77507 9.7438C5.77507 9.55481 5.85014 9.37356 5.98378 9.23992C6.11742 9.10628 6.29867 9.03121 6.48766 9.03121H16.464C16.653 9.03121 16.8342 9.10628 16.9679 9.23992C17.1015 9.37356 17.1766 9.55481 17.1766 9.7438C17.1766 9.93279 17.1015 10.114 16.9679 10.2477C16.8342 10.3813 16.653 10.4564 16.464 10.4564Z" fill="#9D530D"/>
</svg>
