<svg width="22" height="21" viewBox="0 0 22 21" fill="none" xmlns="http://www.w3.org/2000/svg">
<path d="M7.67012 12.3177C7.28616 11.9337 6.66357 11.9337 6.27957 12.3177C5.89557 12.7017 5.89557 13.3242 6.27957 13.7083L7.67012 12.3177ZM9.59698 15.6352L8.90172 16.3304C9.28573 16.7144 9.90822 16.7144 10.2922 16.3304L9.59698 15.6352ZM15.5365 11.0861C15.9205 10.7021 15.9205 10.0796 15.5365 9.69554C15.1525 9.31153 14.53 9.31153 14.146 9.69554L15.5365 11.0861ZM0.772801 6.63902C0.650008 7.16803 0.979306 7.69642 1.50829 7.81925C2.03729 7.94196 2.56567 7.61271 2.68847 7.08371L0.772801 6.63902ZM3.04169 1.21321V0.229893C2.58429 0.229893 2.18729 0.545301 2.08386 0.99086L3.04169 1.21321ZM10.908 2.19652C11.4511 2.19652 11.8913 1.75627 11.8913 1.21321C11.8913 0.670142 11.4511 0.229893 10.908 0.229893V2.19652ZM2.71393 6.86137C2.71393 6.3183 2.27369 5.87805 1.73063 5.87805C1.18758 5.87805 0.74734 6.3183 0.74734 6.86137H2.71393ZM1.73063 19.5684H0.74734C0.74734 20.1115 1.18758 20.5517 1.73063 20.5517V19.5684ZM20.0854 19.5684V20.5517C20.6285 20.5517 21.0687 20.1115 21.0687 19.5684H20.0854ZM21.0687 6.86137C21.0687 6.3183 20.6285 5.87805 20.0854 5.87805C19.5424 5.87805 19.1021 6.3183 19.1021 6.86137H21.0687ZM1.73063 5.87805C1.18758 5.87805 0.74734 6.3183 0.74734 6.86137C0.74734 7.40443 1.18758 7.84468 1.73063 7.84468V5.87805ZM10.908 7.84468C11.4511 7.84468 11.8913 7.40443 11.8913 6.86137C11.8913 6.3183 11.4511 5.87805 10.908 5.87805V7.84468ZM9.92474 6.86137C9.92474 7.40443 10.365 7.84468 10.908 7.84468C11.4511 7.84468 11.8913 7.40443 11.8913 6.86137H9.92474ZM11.8913 1.21321C11.8913 0.670142 11.4511 0.229893 10.908 0.229893C10.365 0.229893 9.92474 0.670142 9.92474 1.21321H11.8913ZM10.908 5.87805C10.365 5.87805 9.92474 6.3183 9.92474 6.86137C9.92474 7.40443 10.365 7.84468 10.908 7.84468V5.87805ZM20.0854 7.84468C20.6285 7.84468 21.0687 7.40443 21.0687 6.86137C21.0687 6.3183 20.6285 5.87805 20.0854 5.87805V7.84468ZM11.8913 6.86137C11.8913 6.3183 11.4511 5.87805 10.908 5.87805C10.365 5.87805 9.92474 6.3183 9.92474 6.86137H11.8913ZM9.92474 9.07973C9.92474 9.62278 10.365 10.063 10.908 10.063C11.4511 10.063 11.8913 9.62278 11.8913 9.07973H9.92474ZM10.908 0.229893C10.365 0.229893 9.92474 0.670142 9.92474 1.21321C9.92474 1.75627 10.365 2.19652 10.908 2.19652V0.229893ZM18.7744 1.21321L19.7322 0.99086C19.6288 0.545301 19.2318 0.229893 18.7744 0.229893V1.21321ZM19.1276 7.08371C19.2504 7.61271 19.7788 7.94196 20.3078 7.81925C20.8368 7.69642 21.166 7.16803 21.0433 6.63902L19.1276 7.08371ZM6.27957 13.7083L8.90172 16.3304L10.2922 14.9399L7.67012 12.3177L6.27957 13.7083ZM10.2922 16.3304L15.5365 11.0861L14.146 9.69554L8.90172 14.9399L10.2922 16.3304ZM2.68847 7.08371L3.99952 1.43555L2.08386 0.99086L0.772801 6.63902L2.68847 7.08371ZM3.04169 2.19652H10.908V0.229893H3.04169V2.19652ZM0.74734 6.86137V19.5684H2.71393V6.86137H0.74734ZM1.73063 20.5517H20.0854V18.5851H1.73063V20.5517ZM21.0687 19.5684V6.86137H19.1021V19.5684H21.0687ZM1.73063 7.84468H10.908V5.87805H1.73063V7.84468ZM11.8913 6.86137V1.21321H9.92474V6.86137H11.8913ZM10.908 7.84468H20.0854V5.87805H10.908V7.84468ZM9.92474 6.86137V9.07973H11.8913V6.86137H9.92474ZM10.908 2.19652H18.7744V0.229893H10.908V2.19652ZM17.8165 1.43555L19.1276 7.08371L21.0433 6.63902L19.7322 0.99086L17.8165 1.43555Z" fill="#EA7A13"/>
</svg>
