<svg width="27" height="27" viewBox="0 0 27 27" fill="none" xmlns="http://www.w3.org/2000/svg">
<path d="M17.7739 12.2952C17.7739 12.4115 17.7277 12.523 17.6455 12.6052C17.5633 12.6874 17.4518 12.7336 17.3355 12.7336H16.1518C16.0465 13.4634 15.6819 14.1308 15.1248 14.6138C14.5677 15.0969 13.8554 15.3632 13.1181 15.364H11.6363L13.7406 18.1698C13.8103 18.2628 13.8403 18.3797 13.8239 18.4948C13.8074 18.6099 13.7459 18.7138 13.6529 18.7836C13.5599 18.8533 13.443 18.8833 13.3279 18.8668C13.2128 18.8504 13.1089 18.7889 13.0391 18.6959L10.4482 15.2369C10.389 15.1746 10.3492 15.0964 10.3336 15.0119C10.318 14.9274 10.3272 14.8402 10.3602 14.7609C10.3931 14.6815 10.4484 14.6134 10.5192 14.5649C10.5901 14.5163 10.6736 14.4893 10.7594 14.4872H13.1181C13.6232 14.4866 14.1126 14.3118 14.504 13.9924C14.8953 13.6729 15.1645 13.2284 15.2662 12.7336H10.7594C10.6432 12.7336 10.5317 12.6874 10.4494 12.6052C10.3672 12.523 10.321 12.4115 10.321 12.2952C10.321 12.1789 10.3672 12.0674 10.4494 11.9852C10.5317 11.903 10.6432 11.8568 10.7594 11.8568H15.2662C15.1645 11.362 14.8953 10.9175 14.504 10.598C14.1126 10.2786 13.6232 10.1038 13.1181 10.1032H10.7594C10.6432 10.1032 10.5317 10.057 10.4494 9.97478C10.3672 9.89257 10.321 9.78106 10.321 9.66479C10.321 9.54851 10.3672 9.437 10.4494 9.35479C10.5317 9.27257 10.6432 9.22638 10.7594 9.22638H17.3355C17.4518 9.22638 17.5633 9.27257 17.6455 9.35479C17.7277 9.437 17.7739 9.54851 17.7739 9.66479C17.7739 9.78106 17.7277 9.89257 17.6455 9.97478C17.5633 10.057 17.4518 10.1032 17.3355 10.1032H15.2575C15.7421 10.5721 16.0568 11.1891 16.1518 11.8568H17.3355C17.4518 11.8568 17.5633 11.903 17.6455 11.9852C17.7277 12.0674 17.7739 12.1789 17.7739 12.2952Z" fill="#1B912E"/>
<path d="M13.8274 0.457703C11.2262 0.457703 8.68335 1.22906 6.5205 2.67423C4.35766 4.1194 2.67192 6.17347 1.67647 8.5767C0.681022 10.9799 0.420567 13.6244 0.928043 16.1756C1.43552 18.7269 2.68813 21.0704 4.52748 22.9097C6.36684 24.7491 8.71031 26.0017 11.2616 26.5091C13.8128 27.0166 16.4573 26.7562 18.8605 25.7607C21.2637 24.7653 23.3178 23.0795 24.763 20.9167C26.2081 18.7538 26.9795 16.211 26.9795 13.6098C26.9755 10.1228 25.5886 6.77985 23.123 4.31421C20.6573 1.84858 17.3143 0.461648 13.8274 0.457703ZM13.8274 25.8851C11.3996 25.8851 9.02629 25.1651 7.00763 23.8163C4.98897 22.4675 3.41562 20.5503 2.48653 18.3073C1.55745 16.0643 1.31436 13.5962 1.788 11.215C2.26164 8.83382 3.43075 6.64658 5.14748 4.92985C6.86421 3.21312 9.05145 2.04402 11.4326 1.57037C13.8138 1.09673 16.2819 1.33982 18.525 2.26891C20.768 3.19799 22.6851 4.77135 24.0339 6.79C25.3828 8.80866 26.1027 11.182 26.1027 13.6098C26.099 16.8642 24.8045 19.9844 22.5032 22.2856C20.202 24.5869 17.0819 25.8813 13.8274 25.8851Z" fill="#1B912E"/>
<path d="M21.3803 7.62555C21.5013 7.41815 21.5657 7.18262 21.567 6.94252C21.567 6.6675 21.4855 6.39865 21.3327 6.16998C21.1799 5.9413 20.9627 5.76306 20.7087 5.6578C20.4546 5.55253 20.175 5.52497 19.9053 5.57859C19.6355 5.63221 19.3877 5.76461 19.1932 5.95905C18.9987 6.15349 18.8663 6.40123 18.8126 6.67095C18.7589 6.94068 18.7863 7.22027 18.8915 7.47438C18.9967 7.72849 19.1749 7.9457 19.4035 8.09856C19.6321 8.25141 19.9009 8.33304 20.176 8.33313C20.3668 8.33311 20.5555 8.29339 20.7301 8.21651C21.9639 9.79613 22.6191 11.7509 22.5864 13.755C22.5537 15.7591 21.8352 17.6914 20.5506 19.23C19.266 20.7686 17.4929 21.8204 15.5268 22.2102C13.5607 22.6 11.5204 22.3042 9.74593 21.3721C9.69484 21.3431 9.63846 21.3248 9.58013 21.318C9.52179 21.3113 9.4627 21.3163 9.40636 21.3328C9.35001 21.3494 9.29756 21.377 9.25212 21.4142C9.20667 21.4514 9.16916 21.4974 9.14182 21.5493C9.11447 21.6013 9.09784 21.6582 9.09291 21.7167C9.08799 21.7753 9.09487 21.8342 9.11315 21.89C9.13142 21.9458 9.16073 21.9973 9.19931 22.0416C9.2379 22.0859 9.28499 22.1219 9.33778 22.1476C11.2946 23.1795 13.5469 23.5068 15.7165 23.0747C17.8861 22.6426 19.841 21.4772 21.2532 19.7743C22.6653 18.0714 23.4487 15.9346 23.4718 13.7225C23.495 11.5104 22.7565 9.35762 21.3803 7.62555ZM19.6626 6.94252C19.6626 6.84088 19.6927 6.74152 19.7492 6.65701C19.8057 6.57251 19.886 6.50665 19.9799 6.46778C20.0738 6.4289 20.1771 6.41875 20.2768 6.43861C20.3765 6.45847 20.468 6.50745 20.5399 6.57935C20.6117 6.65126 20.6606 6.74285 20.6804 6.84255C20.7002 6.94224 20.6899 7.04557 20.651 7.13945C20.612 7.23332 20.5461 7.31354 20.4615 7.36995C20.377 7.42635 20.2776 7.45641 20.176 7.45632C20.0398 7.45621 19.9092 7.40202 19.8129 7.30568C19.7167 7.20933 19.6626 7.07871 19.6626 6.94252Z" fill="#1B912E"/>
<path d="M7.16137 18.8874C7.05924 18.888 6.9575 18.8999 6.85799 18.9229C5.68692 17.4003 5.05454 15.532 5.0601 13.6112C5.06277 11.2866 5.9874 9.05793 7.63115 7.41418C9.27491 5.77043 11.5035 4.8458 13.8282 4.84313C15.1104 4.83975 16.3774 5.12032 17.5384 5.66469C17.6437 5.71399 17.7643 5.71943 17.8737 5.6798C17.983 5.64017 18.0721 5.55873 18.1214 5.45338C18.1707 5.34804 18.1762 5.22743 18.1365 5.11808C18.0969 5.00874 18.0155 4.91961 17.9101 4.87031C15.9631 3.95898 13.7674 3.72459 11.6719 4.20439C9.57636 4.6842 7.70136 5.85066 6.34488 7.51839C4.98839 9.18611 4.22828 11.2594 4.18534 13.4087C4.1424 15.558 4.8191 17.66 6.10789 19.3806C5.89165 19.6297 5.77202 19.9481 5.77075 20.278C5.77067 20.5531 5.85219 20.8221 6.00501 21.051C6.15782 21.2798 6.37507 21.4581 6.62927 21.5635C6.88347 21.6688 7.1632 21.6964 7.43308 21.6428C7.70296 21.5891 7.95086 21.4566 8.14543 21.262C8.34 21.0675 8.47249 20.8196 8.52615 20.5497C8.57981 20.2798 8.55223 20.0001 8.44689 19.7459C8.34155 19.4917 8.16318 19.2744 7.93436 19.1216C7.70553 18.9688 7.43653 18.8873 7.16137 18.8874ZM7.16137 20.7918C7.05976 20.7917 6.96047 20.7615 6.87603 20.705C6.79159 20.6485 6.72581 20.5682 6.68698 20.4743C6.64816 20.3804 6.63805 20.2771 6.65792 20.1775C6.6778 20.0778 6.72677 19.9863 6.79864 19.9145C6.87052 19.8427 6.96207 19.7938 7.06173 19.774C7.16138 19.7542 7.26467 19.7644 7.35853 19.8033C7.45239 19.8422 7.53261 19.9081 7.58905 19.9926C7.64549 20.077 7.67561 20.1764 7.67561 20.278C7.67561 20.3455 7.66231 20.4123 7.63646 20.4747C7.61061 20.5371 7.57273 20.5937 7.52497 20.6414C7.47721 20.6892 7.42052 20.727 7.35813 20.7528C7.29574 20.7786 7.22888 20.7918 7.16137 20.7918Z" fill="#1B912E"/>
</svg>
